<svg width="18" height="15" viewBox="0 0 18 15" fill="none" xmlns="http://www.w3.org/2000/svg">
<path fill-rule="evenodd" clip-rule="evenodd" d="M18 1.73366C17.3271 2.03432 16.6128 2.23079 15.8813 2.31637C16.6506 1.85294 17.2273 1.12593 17.5054 0.269184C16.7803 0.700687 15.9877 1.00553 15.1612 1.17074C14.655 0.628874 13.9983 0.252281 13.2765 0.0897719C12.5547 -0.0727372 11.8009 -0.0136695 11.1128 0.259319C10.4248 0.532307 9.83425 1.00663 9.41772 1.62081C9.00119 2.23498 8.77788 2.9607 8.77675 3.70389C8.77691 3.98798 8.80848 4.27118 8.87086 4.54827C7.40338 4.47414 5.96783 4.09068 4.65749 3.42279C3.34714 2.75491 2.19131 1.81754 1.26508 0.671585C0.936658 1.23761 0.763695 1.88109 0.763862 2.53627C0.764312 3.14547 0.914359 3.74514 1.2007 4.28214C1.48704 4.81914 1.90084 5.27687 2.4054 5.61475C1.8194 5.59462 1.24644 5.43564 0.73322 5.15078V5.19915C0.73058 6.05727 1.02432 6.88973 1.56435 7.55458C2.10437 8.21942 2.85724 8.67547 3.69455 8.84496C3.37703 8.93153 3.04958 8.97588 2.72057 8.97689C2.48699 8.97544 2.25403 8.95262 2.02456 8.90872C2.26089 9.64502 2.72005 10.2889 3.33801 10.7504C3.95596 11.212 4.7019 11.4683 5.47179 11.4837C3.92231 12.7037 1.95478 13.2572 0 13.0229C1.68795 14.1136 3.65308 14.6923 5.66002 14.6897C12.445 14.6897 16.1659 9.03846 16.1659 4.13488C16.1659 3.97216 16.1659 3.81384 16.1549 3.65331C16.8782 3.13133 17.5017 2.48252 17.9956 1.73806L18 1.73366Z" fill="white"/>
</svg>
