<svg width="18" height="18" viewBox="0 0 18 18" fill="none" xmlns="http://www.w3.org/2000/svg">
<path d="M9.00084 0C6.55657 0 6.24982 0.0106881 5.28981 0.0543774C4.33167 0.0982542 3.67766 0.249948 3.10541 0.472519C2.51346 0.702404 2.01133 1.00992 1.51108 1.51037C1.01045 2.01064 0.702945 2.51279 0.472317 3.10456C0.24919 3.67702 0.0973134 4.33124 0.054188 5.28903C0.01125 6.24907 0 6.55602 0 9.00037C0 11.4447 0.0108753 11.7505 0.0543757 12.7106C0.0984387 13.6687 0.250128 14.3228 0.472505 14.895C0.70257 15.487 1.01007 15.9892 1.51052 16.4894C2.01058 16.9901 2.51271 17.2983 3.10428 17.5282C3.67691 17.7508 4.33111 17.9025 5.28906 17.9464C6.24907 17.99 6.55563 18.0007 8.99972 18.0007C11.4442 18.0007 11.75 17.99 12.71 17.9464C13.6681 17.9025 14.3229 17.7508 14.8955 17.5282C15.4873 17.2983 15.9887 16.9901 16.4887 16.4894C16.9894 15.9892 17.2969 15.487 17.5275 14.8952C17.7487 14.3228 17.9006 13.6686 17.9456 12.7108C17.9887 11.7507 18 11.4447 18 9.00037C18 6.55602 17.9887 6.24925 17.9456 5.28922C17.9006 4.33105 17.7487 3.67702 17.5275 3.10475C17.2969 2.51279 16.9894 2.01064 16.4887 1.51037C15.9881 1.00973 15.4875 0.702216 14.895 0.472519C14.3212 0.249948 13.6668 0.0982542 12.7087 0.0543774C11.7487 0.0106881 11.4431 0 8.99803 0H9.00084ZM8.19346 1.62194C8.43309 1.62157 8.70047 1.62194 9.00084 1.62194C11.4039 1.62194 11.6887 1.63057 12.6376 1.67369C13.5151 1.71382 13.9914 1.86045 14.3086 1.98364C14.7287 2.14677 15.0281 2.34178 15.3429 2.6568C15.6579 2.97181 15.8529 3.27182 16.0164 3.69184C16.1396 4.00873 16.2864 4.48499 16.3264 5.36253C16.3695 6.31132 16.3789 6.59633 16.3789 8.9983C16.3789 11.4003 16.3695 11.6853 16.3264 12.6341C16.2862 13.5116 16.1396 13.9879 16.0164 14.3048C15.8533 14.7248 15.6579 15.0239 15.3429 15.3387C15.0279 15.6537 14.7288 15.8487 14.3086 16.0118C13.9918 16.1356 13.5151 16.2818 12.6376 16.322C11.6889 16.3651 11.4039 16.3745 9.00084 16.3745C6.59763 16.3745 6.31282 16.3651 5.36406 16.322C4.48655 16.2815 4.01029 16.1348 3.69285 16.0117C3.27285 15.8485 2.97284 15.6535 2.65784 15.3385C2.34284 15.0235 2.14783 14.7242 1.98433 14.304C1.86114 13.9871 1.71433 13.5109 1.67439 12.6333C1.63127 11.6845 1.62264 11.3995 1.62264 8.99605C1.62264 6.59258 1.63127 6.30907 1.67439 5.36028C1.71452 4.48275 1.86114 4.00648 1.98433 3.68921C2.14746 3.2692 2.34284 2.96918 2.65784 2.65417C2.97284 2.33916 3.27285 2.14415 3.69285 1.98064C4.0101 1.85689 4.48655 1.71063 5.36406 1.67032C6.19431 1.63282 6.51607 1.62157 8.19346 1.61969V1.62194ZM13.805 3.11638C13.2088 3.11638 12.725 3.59958 12.725 4.19605C12.725 4.79232 13.2088 5.27609 13.805 5.27609C14.4013 5.27609 14.885 4.79232 14.885 4.19605C14.885 3.59977 14.4013 3.116 13.805 3.116V3.11638ZM9.00084 4.3783C6.44838 4.3783 4.37892 6.44782 4.37892 9.00037C4.37892 11.5529 6.44838 13.6215 9.00084 13.6215C11.5533 13.6215 13.622 11.5529 13.622 9.00037C13.622 6.44782 11.5531 4.3783 9.00066 4.3783H9.00084ZM9.00084 6.00024C10.6576 6.00024 12.0009 7.34336 12.0009 9.00037C12.0009 10.6572 10.6576 12.0005 9.00084 12.0005C7.34389 12.0005 6.00081 10.6572 6.00081 9.00037C6.00081 7.34336 7.34389 6.00024 9.00084 6.00024V6.00024Z" fill="white"/>
</svg>
